<svg width="250" height="200" viewBox="0 0 250 200" fill="none" xmlns="http://www.w3.org/2000/svg">
<g filter="url(#filter0_b)">
<path fill-rule="evenodd" clip-rule="evenodd" d="M63 134H154C154.515 134 155.017 133.944 155.5 133.839C155.983 133.944 156.485 134 157 134H209C212.866 134 216 130.866 216 127C216 123.134 212.866 120 209 120H203C199.134 120 196 116.866 196 113C196 109.134 199.134 106 203 106H222C225.866 106 229 102.866 229 99C229 95.134 225.866 92 222 92H200C203.866 92 207 88.866 207 85C207 81.134 203.866 78 200 78H136C139.866 78 143 74.866 143 71C143 67.134 139.866 64 136 64H79C75.134 64 72 67.134 72 71C72 74.866 75.134 78 79 78H39C35.134 78 32 81.134 32 85C32 88.866 35.134 92 39 92H64C67.866 92 71 95.134 71 99C71 102.866 67.866 106 64 106H24C20.134 106 17 109.134 17 113C17 116.866 20.134 120 24 120H63C59.134 120 56 123.134 56 127C56 130.866 59.134 134 63 134ZM226 134C229.866 134 233 130.866 233 127C233 123.134 229.866 120 226 120C222.134 120 219 123.134 219 127C219 130.866 222.134 134 226 134Z" fill="#F3F7FF"/>
<path fill-rule="evenodd" clip-rule="evenodd" d="M168.577 126.075C166.143 128.034 163.488 129.81 160.644 131.374L160.809 145.457C160.822 146.562 159.937 147.467 158.832 147.48C158.383 147.486 157.945 147.339 157.589 147.066L144.926 137.323C140.18 138.416 135.173 139 130 139C99.6243 139 75 118.853 75 94C75 69.1472 99.6243 49 130 49C160.376 49 185 69.1472 185 94C185 100.879 183.114 107.397 179.741 113.227C179.119 114.303 178.446 115.355 177.726 116.381M175.193 119.654C174.279 120.73 173.309 121.771 172.287 122.776Z" fill="white"/>
<path d="M169.361 127.048C169.898 126.615 169.983 125.829 169.55 125.291C169.117 124.753 168.33 124.668 167.793 125.101L169.361 127.048ZM160.644 131.374L160.042 130.278L159.385 130.639L159.394 131.388L160.644 131.374ZM160.809 145.457L159.559 145.472L159.559 145.472L160.809 145.457ZM158.832 147.48L158.818 146.23L158.832 147.48ZM157.589 147.066L158.351 146.075L158.351 146.075L157.589 147.066ZM144.926 137.323L145.689 136.332L145.221 135.973L144.646 136.105L144.926 137.323ZM179.741 113.227L180.823 113.853L180.823 113.853L179.741 113.227ZM176.703 115.663C176.306 116.228 176.443 117.007 177.008 117.404C177.573 117.801 178.352 117.664 178.749 117.099L176.703 115.663ZM176.146 120.463C176.593 119.937 176.528 119.148 176.002 118.702C175.476 118.255 174.687 118.319 174.24 118.845L176.146 120.463ZM171.411 121.884C170.919 122.368 170.912 123.159 171.396 123.652C171.879 124.144 172.671 124.151 173.163 123.667L171.411 121.884ZM167.793 125.101C165.418 127.013 162.823 128.749 160.042 130.278L161.246 132.469C164.152 130.871 166.869 129.055 169.361 127.048L167.793 125.101ZM159.394 131.388L159.559 145.472L162.059 145.442L161.894 131.359L159.394 131.388ZM159.559 145.472C159.564 145.886 159.232 146.226 158.818 146.23L158.847 148.73C160.642 148.709 162.08 147.237 162.059 145.442L159.559 145.472ZM158.818 146.23C158.649 146.232 158.485 146.178 158.351 146.075L156.827 148.056C157.405 148.501 158.117 148.739 158.847 148.73L158.818 146.23ZM158.351 146.075L145.689 136.332L144.164 138.314L156.827 148.056L158.351 146.075ZM144.646 136.105C139.992 137.176 135.079 137.75 130 137.75V140.25C135.267 140.25 140.368 139.655 145.207 138.541L144.646 136.105ZM130 137.75C100.068 137.75 76.25 117.94 76.25 94H73.75C73.75 119.766 99.1802 140.25 130 140.25V137.75ZM76.25 94C76.25 70.0604 100.068 50.25 130 50.25V47.75C99.1802 47.75 73.75 68.234 73.75 94H76.25ZM130 50.25C159.932 50.25 183.75 70.0604 183.75 94H186.25C186.25 68.234 160.82 47.75 130 47.75V50.25ZM183.75 94C183.75 100.645 181.929 106.948 178.659 112.601L180.823 113.853C184.298 107.846 186.25 101.113 186.25 94H183.75ZM178.659 112.601C178.056 113.645 177.403 114.666 176.703 115.663L178.749 117.099C179.49 116.043 180.182 114.961 180.823 113.853L178.659 112.601ZM174.24 118.845C173.351 119.891 172.407 120.905 171.411 121.884L173.163 123.667C174.212 122.637 175.207 121.568 176.146 120.463L174.24 118.845Z" fill="#75A4FE"/>
<path fill-rule="evenodd" clip-rule="evenodd" d="M116 94C116 97.3137 113.314 100 110 100C106.686 100 104 97.3137 104 94C104 90.6863 106.686 88 110 88C113.314 88 116 90.6863 116 94ZM135 94C135 97.3137 132.314 100 129 100C125.686 100 123 97.3137 123 94C123 90.6863 125.686 88 129 88C132.314 88 135 90.6863 135 94ZM148 100C151.314 100 154 97.3137 154 94C154 90.6863 151.314 88 148 88C144.686 88 142 90.6863 142 94C142 97.3137 144.686 100 148 100Z" fill="#E8F0FE"/>
<path d="M110 101.25C114.004 101.25 117.25 98.0041 117.25 94H114.75C114.75 96.6234 112.623 98.75 110 98.75V101.25ZM102.75 94C102.75 98.0041 105.996 101.25 110 101.25V98.75C107.377 98.75 105.25 96.6234 105.25 94H102.75ZM110 86.75C105.996 86.75 102.75 89.9959 102.75 94H105.25C105.25 91.3766 107.377 89.25 110 89.25V86.75ZM117.25 94C117.25 89.9959 114.004 86.75 110 86.75V89.25C112.623 89.25 114.75 91.3766 114.75 94H117.25ZM129 101.25C133.004 101.25 136.25 98.0041 136.25 94H133.75C133.75 96.6234 131.623 98.75 129 98.75V101.25ZM121.75 94C121.75 98.0041 124.996 101.25 129 101.25V98.75C126.377 98.75 124.25 96.6234 124.25 94H121.75ZM129 86.75C124.996 86.75 121.75 89.9959 121.75 94H124.25C124.25 91.3766 126.377 89.25 129 89.25V86.75ZM136.25 94C136.25 89.9959 133.004 86.75 129 86.75V89.25C131.623 89.25 133.75 91.3766 133.75 94H136.25ZM152.75 94C152.75 96.6234 150.623 98.75 148 98.75V101.25C152.004 101.25 155.25 98.0041 155.25 94H152.75ZM148 89.25C150.623 89.25 152.75 91.3766 152.75 94H155.25C155.25 89.9959 152.004 86.75 148 86.75V89.25ZM143.25 94C143.25 91.3766 145.377 89.25 148 89.25V86.75C143.996 86.75 140.75 89.9959 140.75 94H143.25ZM148 98.75C145.377 98.75 143.25 96.6234 143.25 94H140.75C140.75 98.0041 143.996 101.25 148 101.25V98.75Z" fill="#75A4FE"/>
<ellipse cx="88.4869" cy="81.6917" rx="1.17517" ry="2.3805" stroke="#A4C3FE" stroke-width="2.5" stroke-linecap="round"/>
<ellipse cx="99.9806" cy="69.4968" rx="8.04136" ry="6.42353" stroke="#A4C3FE" stroke-width="2.5" stroke-linecap="round"/>
</g>
<defs>
<filter id="filter0_b" x="-4" y="-4" width="258" height="208" filterUnits="userSpaceOnUse" color-interpolation-filters="sRGB">
<feFlood flood-opacity="0" result="BackgroundImageFix"/>
<feGaussianBlur in="BackgroundImage" stdDeviation="2"/>
<feComposite in2="SourceAlpha" operator="in" result="effect1_backgroundBlur"/>
<feBlend mode="normal" in="SourceGraphic" in2="effect1_backgroundBlur" result="shape"/>
</filter>
</defs>
</svg>
